<svg width="32" height="32" viewBox="0 0 32 32" fill="none" xmlns="http://www.w3.org/2000/svg">
<path d="M21.3337 10.667C23.4554 10.667 25.4902 11.5098 26.9905 13.0101C28.4908 14.5104 29.3337 16.5453 29.3337 18.667V28.0003H24.0003V18.667C24.0003 17.9597 23.7194 17.2815 23.2193 16.7814C22.7192 16.2813 22.0409 16.0003 21.3337 16.0003C20.6264 16.0003 19.9481 16.2813 19.448 16.7814C18.9479 17.2815 18.667 17.9597 18.667 18.667V28.0003H13.3337V18.667C13.3337 16.5453 14.1765 14.5104 15.6768 13.0101C17.1771 11.5098 19.2119 10.667 21.3337 10.667Z" stroke="#F3F3F3" stroke-width="3" stroke-linecap="round" stroke-linejoin="round"/>
<path d="M8.00033 12.0003H2.66699V28.0003H8.00033V12.0003Z" stroke="#F3F3F3" stroke-width="3" stroke-linecap="round" stroke-linejoin="round"/>
<path d="M5.33366 8.00033C6.80642 8.00033 8.00033 6.80642 8.00033 5.33366C8.00033 3.8609 6.80642 2.66699 5.33366 2.66699C3.8609 2.66699 2.66699 3.8609 2.66699 5.33366C2.66699 6.80642 3.8609 8.00033 5.33366 8.00033Z" stroke="#F3F3F3" stroke-width="3" stroke-linecap="round" stroke-linejoin="round"/>
</svg>
