<svg width="32" height="32" viewBox="0 0 32 32" fill="none" xmlns="http://www.w3.org/2000/svg">
<g clip-path="url(#clip0_2202_603)">
<path d="M20.0663 6.66634C21.3686 6.92043 22.5654 7.55735 23.5037 8.49559C24.4419 9.43383 25.0788 10.6307 25.3329 11.933M20.0663 1.33301C22.772 1.63359 25.295 2.84524 27.2212 4.76902C29.1474 6.6928 30.3623 9.21435 30.6663 11.9197M29.3329 22.5597V26.5597C29.3344 26.931 29.2584 27.2986 29.1096 27.6388C28.9608 27.979 28.7427 28.2845 28.469 28.5355C28.1954 28.7865 27.8724 28.9777 27.5206 29.0966C27.1688 29.2156 26.7961 29.2598 26.4263 29.2263C22.3234 28.7805 18.3823 27.3785 14.9196 25.133C11.698 23.0859 8.9667 20.3546 6.91959 17.133C4.66622 13.6546 3.26391 9.69433 2.82625 5.57301C2.79293 5.2043 2.83675 4.83269 2.95492 4.48184C3.07309 4.13099 3.26301 3.80859 3.51261 3.53517C3.7622 3.26175 4.06599 3.04329 4.40464 2.8937C4.74329 2.74412 5.10937 2.66669 5.47959 2.66634H9.47959C10.1267 2.65997 10.754 2.88911 11.2446 3.31105C11.7352 3.73299 12.0557 4.31894 12.1463 4.95967C12.3151 6.23976 12.6282 7.49664 13.0796 8.70634C13.259 9.18357 13.2978 9.70223 13.1915 10.2008C13.0851 10.6995 12.8381 11.1572 12.4796 11.5197L10.7863 13.213C12.6843 16.5511 15.4482 19.3149 18.7863 21.213L20.4796 19.5197C20.8421 19.1612 21.2998 18.9141 21.7984 18.8078C22.297 18.7015 22.8157 18.7403 23.2929 18.9197C24.5026 19.3711 25.7595 19.6842 27.0396 19.853C27.6873 19.9444 28.2788 20.2706 28.7016 20.7697C29.1245 21.2687 29.3491 21.9058 29.3329 22.5597Z" stroke="#EAB308" stroke-width="3" stroke-linecap="round" stroke-linejoin="round"/>
</g>
<defs>
<clipPath id="clip0_2202_603">
<rect width="32" height="32" fill="white"/>
</clipPath>
</defs>
</svg>
