<svg width="41" height="40" viewBox="0 0 41 40" fill="none" xmlns="http://www.w3.org/2000/svg">
<g clip-path="url(#clip0_2202_594)">
<path d="M9.96875 10.75H7.40625C6.38682 10.75 5.40915 11.1451 4.68831 11.8483C3.96747 12.5516 3.5625 13.5054 3.5625 14.5V27C3.5625 27.3315 3.69749 27.6495 3.93777 27.8839C4.17805 28.1183 4.50394 28.25 4.84375 28.25H9.96875V10.75Z" fill="#EAB308"/>
<path d="M22.7812 15.75H20.2188V28.25H22.7812V15.75Z" fill="#EAB308"/>
<path d="M30.4688 10.7504V0.750381C30.4677 0.544497 30.4145 0.342063 30.3139 0.161067C30.2133 -0.0199294 30.0684 -0.173884 29.8922 -0.287119L22.2047 -5.28712C21.9955 -5.42153 21.7505 -5.49316 21.5 -5.49316C21.2495 -5.49316 21.0045 -5.42153 20.7953 -5.28712L13.1078 -0.287119C12.9316 -0.173884 12.7867 -0.0199294 12.6861 0.161067C12.5855 0.342063 12.5323 0.544497 12.5312 0.750381V28.2504H17.6562V14.5004C17.6562 14.1689 17.7912 13.8509 18.0315 13.6165C18.2718 13.3821 18.5977 13.2504 18.9375 13.2504H24.0625C24.4023 13.2504 24.7282 13.3821 24.9685 13.6165C25.2088 13.8509 25.3438 14.1689 25.3438 14.5004V28.2504H30.4688V10.7504ZM24.0625 9.50038H18.9375C18.5977 9.50038 18.2718 9.36869 18.0315 9.13426C17.7912 8.89985 17.6562 8.5819 17.6562 8.25038C17.6562 7.91886 17.7912 7.60092 18.0315 7.3665C18.2718 7.13208 18.5977 7.00038 18.9375 7.00038H24.0625C24.4023 7.00038 24.7282 7.13208 24.9685 7.3665C25.2088 7.60092 25.3438 7.91886 25.3438 8.25038C25.3438 8.5819 25.2088 8.89985 24.9685 9.13426C24.7282 9.36869 24.4023 9.50038 24.0625 9.50038ZM24.0625 4.50038H18.9375C18.5977 4.50038 18.2718 4.36868 18.0315 4.13426C17.7912 3.89984 17.6562 3.5819 17.6562 3.25038C17.6562 2.91886 17.7912 2.60092 18.0315 2.3665C18.2718 2.13208 18.5977 2.00038 18.9375 2.00038H24.0625C24.4023 2.00038 24.7282 2.13208 24.9685 2.3665C25.2088 2.60092 25.3438 2.91886 25.3438 3.25038C25.3438 3.5819 25.2088 3.89984 24.9685 4.13426C24.7282 4.36868 24.4023 4.50038 24.0625 4.50038Z" fill="#EAB308"/>
<path d="M35.5938 10.75H33.0312V28.25H38.1562C38.4961 28.25 38.822 28.1183 39.0622 27.8839C39.3025 27.6495 39.4375 27.3315 39.4375 27V14.5C39.4375 13.5054 39.0325 12.5516 38.3117 11.8483C37.5908 11.1451 36.6132 10.75 35.5938 10.75Z" fill="#EAB308"/>
</g>
<defs>
<clipPath id="clip0_2202_594">
<rect width="41" height="40" fill="white"/>
</clipPath>
</defs>
</svg>
